<?xml version="1.0" encoding="UTF-8"?><svg xmlns="http://www.w3.org/2000/svg" viewBox="0 0 773.78 384.38"><defs><style>.cls-1{opacity:.1;}.cls-2{fill:#ebebeb;}.cls-3{fill:#f5f5f5;}.cls-4,.cls-5{fill:#fff;}.cls-6{fill:#fafafa;}.cls-7{fill:#d50c68;}.cls-8{fill:#e0e0e0;}.cls-9{fill:#407bff;}.cls-10{opacity:.2;}.cls-11,.cls-12,.cls-5{opacity:.4;}.cls-12{stroke:#fff;stroke-linecap:round;stroke-linejoin:round;stroke-width:2px;}.cls-12,.cls-13,.cls-14{fill:none;}.cls-13{stroke:#e0e0e0;}.cls-13,.cls-14{stroke-miterlimit:10;stroke-width:.96px;}.cls-14{stroke:#fafafa;}</style></defs><g id="Background_Complete"><g><rect class="cls-2" x="5.64" y="269.85" width="104.15" height="80.33"/><path class="cls-8" d="M83.7,349.62c-.14,0-.26-17.91-.26-39.99s.12-39.99,.26-39.99,.26,17.9,.26,39.99-.12,39.99-.26,39.99Z"/><rect class="cls-6" x="92.98" y="331.9" width="7.98" height="9.03"/><rect class="cls-8" x="37.42" y="270.06" width="11.83" height="17.14"/><rect class="cls-8" x="37.42" y="332.81" width="11.83" height="17.14"/></g><g><g><g><circle class="cls-2" cx="332.47" cy="140.22" r="47.07"/><path class="cls-8" d="M348.46,119.8c-.86,2.14-3.29,3.18-5.43,2.32-2.14-.86-3.18-3.29-2.32-5.43,.86-2.14,3.29-3.18,5.43-2.32,2.14,.86,3.18,3.29,2.32,5.43Z"/><path class="cls-8" d="M364.31,127.23c-.86,2.14-3.29,3.18-5.43,2.32-2.14-.86-3.18-3.29-2.32-5.43,.86-2.14,3.29-3.18,5.43-2.32,2.14,.86,3.18,3.29,2.32,5.43Z"/><path class="cls-8" d="M363.21,114.59c-.62,1.54-2.36,2.28-3.9,1.66-1.54-.62-2.28-2.36-1.66-3.9,.62-1.54,2.36-2.28,3.9-1.66,1.54,.62,2.28,2.36,1.66,3.9Z"/></g><g><rect class="cls-8" x="430.46" y="178.74" width="148.69" height="148.69"/><rect class="cls-2" x="406.3" y="178.74" width="148.69" height="148.69"/><rect class="cls-14" x="417.24" y="191.01" width="126.82" height="126.82"/><path class="cls-4" d="M468.39,265.81l-8.78,20.2h-11.28l28.71-64.24h13.16l28.84,64.24h-11.66l-9.03-20.2h-29.97Zm27.71-6.48l-8.27-18.49c-1.88-4.19-3.13-8.01-4.39-11.72h-.25c-1.25,3.81-2.63,7.72-4.26,11.63l-8.27,18.58h25.45Z"/></g><g><g><path class="cls-8" d="M465.2,39.77c0,3.05-2.48,5.53-5.53,5.53s-5.53-2.48-5.53-5.53,2.48-5.53,5.53-5.53,5.53,2.48,5.53,5.53Z"/><polyline class="cls-13" points="429.14 72.25 454.45 39.77 465.2 39.77 488.84 69.71"/></g><rect class="cls-8" x="407.93" y="69.71" width="113.18" height="77.69"/><rect class="cls-2" x="401.45" y="69.71" width="113.18" height="77.69"/><rect class="cls-6" x="407.71" y="76.78" width="100.26" height="63.44"/></g><g><rect class="cls-8" x="212.18" y="258.21" width="69.85" height="69.85"/><rect class="cls-2" x="196.33" y="258.21" width="69.85" height="69.85"/><rect class="cls-8" x="255.04" y="189.27" width="69.85" height="69.85"/><rect class="cls-2" x="239.18" y="189.27" width="69.85" height="69.85"/><circle class="cls-3" cx="262.99" cy="165.27" r="23.81" transform="translate(57.45 398.14) rotate(-80.71)"/><circle class="cls-3" cx="115.48" cy="335.1" r="23.81" transform="translate(-233.87 394.99) rotate(-80.71)"/></g></g><rect class="cls-2" x="133.74" y="327.4" width="500" height=".25"/><rect class="cls-2" x="550.52" y="343.49" width="33.12" height=".25"/><rect class="cls-2" x="456.27" y="346.21" width="8.69" height=".25"/><rect class="cls-2" x="501.85" y="334.21" width="47.67" height=".25"/><rect class="cls-2" x="186.2" y="335.89" width="23.68" height=".25"/><rect class="cls-2" x="218.78" y="335.89" width="25.85" height=".25"/><rect class="cls-2" x="265.21" y="340.11" width="64.64" height=".25"/><path class="cls-2" d="M370.74,282.8H177.65c-3.15,0-5.7-2.56-5.7-5.71V5.66c.03-3.13,2.57-5.65,5.7-5.66h193.09c3.15,0,5.71,2.56,5.71,5.71h0V277.09c0,3.15-2.56,5.71-5.71,5.71ZM177.65,.2c-3.01,0-5.45,2.45-5.45,5.46V277.09c0,3.01,2.44,5.45,5.45,5.46h193.09c3.01,0,5.45-2.45,5.46-5.46V5.66c0-3.01-2.45-5.45-5.46-5.46H177.65Z"/><path class="cls-2" d="M587.05,282.8h-193.1c-3.15,0-5.7-2.56-5.71-5.71V5.66c.03-3.13,2.58-5.65,5.71-5.66h193.1c3.13,.01,5.66,2.53,5.69,5.66V277.09c0,3.15-2.54,5.7-5.69,5.71ZM393.95,.2c-3.01,0-5.45,2.45-5.46,5.46V277.09c0,3.01,2.45,5.45,5.46,5.46h193.1c3.01,0,5.45-2.45,5.46-5.46V5.66c0-3.01-2.45-5.45-5.46-5.46h-193.1Z"/><path class="cls-2" d="M768.93,283.25h-164.57c-2.69,0-4.86-2.56-4.87-5.71V6.11c.03-3.13,2.2-5.65,4.87-5.66h164.57c2.66,.01,4.83,2.53,4.85,5.66V277.54c0,3.15-2.17,5.7-4.85,5.71ZM604.36,.65c-2.57,0-4.65,2.45-4.65,5.46V277.54c0,3.01,2.09,5.45,4.65,5.46h164.57c2.57,0,4.65-2.45,4.65-5.46V6.11c0-3.01-2.09-5.45-4.65-5.46h-164.57Z"/><path class="cls-2" d="M157.83,282.8H4.53c-2.5,0-4.53-2.56-4.53-5.71V5.66C.03,2.53,2.05,0,4.53,0H157.83c2.48,.01,4.5,2.53,4.52,5.66V277.09c0,3.15-2.02,5.7-4.52,5.71ZM4.53,.2C2.14,.21,.2,2.65,.2,5.66V277.09c0,3.01,1.94,5.45,4.33,5.46H157.83c2.39,0,4.33-2.45,4.33-5.46V5.66c0-3.01-1.94-5.45-4.33-5.46H4.53Z"/></g><g><g><path class="cls-2" d="M687.24,253.59c5.32-2.74,11.57-3.1,17.47-2.12,3.17,.52,6.48,1.47,8.63,3.85,2.16,2.38,2.57,6.57,.09,8.62-1.47,1.22-3.53,1.4-5.44,1.38-4.62-.05-9.74-.87-13.44,1.91-2.11,1.59-3.51,4.22-6.02,5-2.46,.76-5.24-.69-6.55-2.91-1.31-2.22-1.35-5-.74-7.51,0,0,.64-5.46,6-8.22Z"/><path class="cls-2" d="M675.06,230.08c3.25,4.64,9.57,3.1,12.5,.27,2.93-2.83,4.17-6.94,5.29-10.86,2.57-8.95,5.17-18.33,3.26-27.45-.57-2.72-1.59-5.44-3.51-7.46-1.91-2.02-4.86-3.22-7.55-2.51-3.19,.84-5.16,3.96-6.6,6.93-4.21,8.72-6.43,18.39-6.47,28.08-.02,4.52,.52,9.27,3.07,13"/><path class="cls-2" d="M666.13,236.75c3.53-4.19,4.2-10.3,2.63-15.54-1.57-5.25-5.12-9.71-9.21-13.35-4.79-4.27-10.43-7.6-16.49-9.73-2.38-.84-4.9-1.5-7.41-1.26-2.52,.24-5.05,1.53-6.22,3.76-1.74,3.31-.07,7.32,1.73,10.6,3.17,5.77,6.79,11.29,10.83,16.49,3.25,4.18,6.96,8.31,11.91,10.2,4.95,1.89,10.08,1.67,12.71-1.76"/><path class="cls-8" d="M674.84,300.11c.06,0,.16-.75,.29-2.11,.15-1.54,.34-3.46,.56-5.76,.27-2.42,.62-5.3,1.29-8.44,.67-3.13,1.72-6.52,3.07-9.97,1.4-3.42,3.1-6.53,5.09-9.02,1.98-2.5,4.27-4.31,6.43-5.35,2.15-1.06,4.08-1.5,5.42-1.69,1.35-.14,2.1-.24,2.1-.3,0-.06-.75-.07-2.14-.03-1.37,.09-3.38,.44-5.65,1.47-2.28,1.01-4.71,2.85-6.79,5.4-2.09,2.54-3.85,5.72-5.27,9.2-1.37,3.5-2.41,6.93-3.05,10.13-.64,3.19-.93,6.11-1.12,8.55-.18,2.44-.25,4.42-.29,5.79-.03,1.37-.01,2.13,.04,2.13Z"/><path class="cls-8" d="M675.24,295.68s.05-.34,.06-.98c0-.74,0-1.66,0-2.8,0-2.43,0-5.94,.12-10.28,.21-8.68,.96-18.02,2.41-31.2,1.37-12.39,3.2-26.8,5.14-36.17,.42-2.13,.83-4.05,1.23-5.73,.38-1.68,.7-3.13,1.01-4.31,.27-1.11,.48-2.01,.65-2.72,.14-.62,.2-.96,.17-.97-.03,0-.15,.31-.34,.92-.21,.7-.48,1.59-.81,2.68-.36,1.16-.73,2.61-1.15,4.28-.44,1.67-.9,3.59-1.36,5.71-1.92,8.49-3.94,20.36-5.4,33.56-1.45,13.2-2.1,25.22-2.16,33.92-.05,4.35,.04,7.87,.15,10.3,.07,1.14,.13,2.06,.17,2.8,.05,.64,.09,.97,.12,.97Z"/><path class="cls-8" d="M675.29,272.5c.06,0,.05-1.04-.02-2.92-.11-1.88-.37-4.59-.9-7.92-.56-3.32-1.34-7.26-2.58-11.54-.53-1.96-1.79-6.65-4.83-13.66-4-9.5-9.44-17.26-14.17-22.07-1.11-1.28-2.35-2.2-3.33-3.1-.51-.43-.96-.86-1.42-1.21-.46-.32-.89-.62-1.29-.89-1.56-1.06-2.43-1.63-2.46-1.58-.14,.19,3.49,2.32,8.07,7.2,4.56,4.86,9.85,12.57,13.82,21.99,2.21,5.11,3.76,9.66,4.85,13.53,1.27,4.24,2.11,8.14,2.74,11.43,.6,3.29,.95,5.98,1.16,7.84,.17,1.86,.3,2.9,.36,2.9Z"/></g><polygon class="cls-2" points="651.34 309.87 653.66 341.69 694.54 341.69 696.86 309.87 651.34 309.87"/><rect class="cls-2" x="647.39" y="297.32" width="54.35" height="12.54"/><polygon class="cls-8" points="647.39 340.47 647.39 343.95 649.94 343.95 700.84 343.95 700.84 340.47 647.39 340.47"/><polygon class="cls-8" points="652.45 349.68 649.94 343.56 698.89 343.56 695.97 349.68 652.45 349.68"/><path class="cls-3" d="M696.1,320.27s-.06,.11-.19,.29c-.16,.22-.36,.48-.61,.81-.58,.74-1.38,1.76-2.38,3.05l-.11,.14-.1-.14c-1.5-2.07-3.5-4.84-5.85-8.09h.34c-1.74,2.46-3.68,5.21-5.76,8.16l-.18,.26-.2-.24c-2.13-2.53-4.43-5.28-6.83-8.13h.39c-.12,.14-.25,.31-.38,.47-2.12,2.66-4.17,5.23-6.11,7.66l-.2,.26-.19-.27c-2.07-2.93-4.01-5.68-5.76-8.15l.34,.02c-2.84,3.24-5.25,5.98-7.1,8.09l-.13,.14-.1-.16c-.94-1.57-1.68-2.83-2.22-3.73-.23-.41-.42-.73-.57-.99-.13-.23-.18-.35-.17-.35,.01,0,.09,.1,.24,.32,.17,.25,.37,.57,.63,.96,.57,.89,1.35,2.12,2.33,3.67l-.22-.02c1.82-2.13,4.19-4.91,6.98-8.19l.18-.21,.16,.22c1.77,2.47,3.72,5.2,5.81,8.12h-.39c1.93-2.45,3.98-5.02,6.09-7.68,.13-.16,.26-.32,.38-.47l.19-.24,.2,.24c2.39,2.86,4.69,5.61,6.81,8.14h-.38c2.1-2.92,4.06-5.65,5.82-8.1l.17-.24,.17,.24c2.3,3.29,4.26,6.09,5.73,8.18h-.21c1.04-1.26,1.87-2.25,2.48-2.98,.27-.31,.49-.56,.66-.77,.15-.17,.24-.26,.25-.25Z"/><path class="cls-3" d="M697.43,309.66c0,.14-10.24,.25-22.88,.25s-22.88-.11-22.88-.25,10.24-.25,22.88-.25,22.88,.11,22.88,.25Z"/></g><g><rect class="cls-8" x="708.96" y="69.28" width="8.38" height="41.7" transform="translate(-.47 3.82) rotate(-.31)"/><g><rect class="cls-2" x="636.31" y="69.43" width="21.7" height="23.02" transform="translate(-.42 3.47) rotate(-.31)"/><rect class="cls-3" x="657.91" y="69.31" width="21.7" height="23.02" transform="translate(-.42 3.58) rotate(-.31)"/><path class="cls-8" d="M636.28,75.84c14.42,.12,28.88,.04,43.3-.2,.3,0,.29-.46,0-.46-14.42-.08-28.88,0-43.3,.26-.25,0-.25,.39,0,.4h0Z"/></g><g><rect class="cls-2" x="622.77" y="92.11" width="39.43" height="18.76" transform="translate(-.53 3.44) rotate(-.31)"/><rect class="cls-3" x="662.01" y="91.9" width="39.43" height="18.76" transform="translate(-.53 3.65) rotate(-.31)"/><path class="cls-8" d="M622.74,97.44c26.19,.3,52.48,.03,78.67-.39,.3,0,.29-.46,0-.46-26.19-.14-52.48-.12-78.67,.45-.25,0-.25,.39,0,.4h0Z"/></g><g><rect class="cls-8" x="608" y="110.98" width="152.76" height="6.72"/><rect class="cls-8" x="633.01" y="114.21" width="6.2" height="22.93"/><rect class="cls-8" x="725.58" y="114.21" width="6.2" height="22.93"/></g><rect class="cls-2" x="717.18" y="53.73" width="8.38" height="57.35" transform="translate(-.43 3.87) rotate(-.31)"/><g><rect class="cls-3" x="725.6" y="64.42" width="13.02" height="46.48" transform="translate(-.46 3.93) rotate(-.31)"/><path class="cls-8" d="M738.41,73.34c0,.12-2.92,.23-6.51,.23s-6.51-.1-6.51-.23,2.91-.23,6.51-.23,6.51,.1,6.51,.23Z"/><path class="cls-8" d="M738.41,71.39c0,.12-2.92,.23-6.51,.23s-6.51-.1-6.51-.23,2.91-.23,6.51-.23,6.51,.1,6.51,.23Z"/><path class="cls-8" d="M738.41,103.87c0,.12-2.92,.23-6.51,.23s-6.51-.1-6.51-.23,2.91-.23,6.51-.23,6.51,.1,6.51,.23Z"/><path class="cls-8" d="M738.41,101.92c0,.12-2.92,.23-6.51,.23s-6.51-.1-6.51-.23,2.91-.23,6.51-.23,6.51,.1,6.51,.23Z"/><path class="cls-8" d="M732.11,97.66c-.12,0-.23-4.69-.23-10.47s.1-10.47,.23-10.47,.23,4.69,.23,10.47-.1,10.47-.23,10.47Z"/></g><rect class="cls-2" x="738.55" y="75.8" width="14.17" height="35.08"/><circle class="cls-8" cx="721.09" cy="63.5" r="2.41"/><rect class="cls-8" x="720.35" y="70.13" width="1.49" height="34.12"/></g><g><rect class="cls-8" x="192.14" y="21.67" width="84.89" height="88.49"/><g><rect class="cls-6" x="186.4" y="21.67" width="84.89" height="88.49"/><path class="cls-8" d="M271.31,110.18h-84.94V21.64h84.94V110.18Zm-84.89-.05h84.84V21.69h-84.84V110.13Z"/></g><rect class="cls-6" x="197.81" y="33.56" width="62.07" height="64.7"/><path class="cls-8" d="M197.81,98.69c.05,.06-.54,.73-1.53,1.78-.99,1.05-2.38,2.46-3.95,4-1.56,1.54-3,2.91-4.05,3.88-1.06,.97-1.74,1.55-1.79,1.49-.05-.05,.53-.73,1.52-1.77,.99-1.05,2.39-2.47,3.95-4.01,1.57-1.54,3-2.92,4.06-3.89,1.06-.97,1.74-1.54,1.79-1.49Z"/><path class="cls-8" d="M259.87,98.53c.06-.05,.73,.54,1.78,1.53,1.05,.99,2.46,2.38,4,3.95,1.54,1.56,2.91,3,3.88,4.05,.97,1.06,1.55,1.74,1.49,1.79-.05,.05-.73-.53-1.77-1.52-1.05-.99-2.47-2.39-4.01-3.95-1.54-1.57-2.92-3-3.89-4.06-.97-1.06-1.54-1.74-1.49-1.79Z"/><path class="cls-8" d="M259.7,33.74c-.05-.06,.54-.73,1.53-1.78,.99-1.05,2.38-2.46,3.95-4,1.56-1.54,3-2.91,4.05-3.88,1.06-.97,1.74-1.55,1.79-1.49,.05,.05-.53,.73-1.52,1.77-.99,1.05-2.39,2.46-3.95,4.01-1.57,1.54-3,2.92-4.06,3.89-1.06,.97-1.74,1.54-1.79,1.49Z"/><path class="cls-8" d="M197.64,33.89c-.06,.05-.73-.54-1.78-1.53-1.05-.99-2.46-2.38-4-3.95-1.54-1.56-2.91-3-3.88-4.05-.97-1.06-1.55-1.74-1.49-1.79,.05-.05,.73,.53,1.77,1.52,1.05,.99,2.47,2.39,4.01,3.95,1.54,1.57,2.92,3,3.89,4.06,.97,1.06,1.54,1.74,1.49,1.79Z"/><path class="cls-8" d="M259.7,98.26s0-.11-.01-.31c0-.22,0-.52-.01-.9,0-.81-.02-1.98-.03-3.49-.01-3.06-.04-7.52-.06-13.19-.03-11.33-.07-27.47-.12-46.8l.24,.24c-18.07,.01-39.29,.02-61.89,.04h0l.27-.27c-.01,23.75-.03,45.96-.04,64.7l-.24-.24c18.55,.05,33.99,.09,44.82,.12,5.41,.03,9.66,.05,12.59,.06,1.44,.01,2.56,.02,3.33,.03,.37,0,.65,.01,.86,.01,.19,0,.3,0,.3,.01,0,0-.09,0-.27,.01-.2,0-.48,0-.84,.01-.76,0-1.86,.02-3.29,.03-2.91,.01-7.15,.04-12.54,.06-10.86,.03-26.36,.07-44.97,.12h-.24v-.24c-.01-18.74-.02-40.95-.04-64.7v-.27h.28c22.6,.01,43.82,.02,61.89,.04h.24v.24c-.05,19.39-.09,35.59-.12,46.96-.03,5.64-.05,10.08-.06,13.13-.01,1.49-.02,2.65-.03,3.45,0,.37-.01,.66-.01,.88,0,.2,0,.29-.01,.29Z"/><rect class="cls-2" x="218.48" y="55.56" width="20.71" height="20.71"/></g><g><rect class="cls-8" x="34.12" y="35.24" width="88.51" height="146.52"/><rect class="cls-2" x="31.17" y="35.24" width="88.51" height="146.52"/><rect class="cls-6" x="34.94" y="38.21" width="80.98" height="140.57"/><g><rect class="cls-2" x="50.36" y="56.48" width="49.79" height="104.04"/><path class="cls-8" d="M50.36,123.7c-.12-9.72,8.62-19.21,18.25-20.56,4.59-.65,9.47,.26,13.75-1.49,7.65-3.14,10.09-13.31,17.79-16.32l.35,75.2H50.36v-36.82Z"/></g></g></g><g id="Shadow"><g id="Shadow--inject-109"><ellipse id="path--inject-109" class="cls-3" cx="378.2" cy="367.15" rx="257.91" ry="17.23"/></g></g><g id="Teddy"><g><g><path class="cls-7" d="M440.51,175.48c5.62-6.91,14.46-21.06,4.89-33.09-10.66-13.4-26.7-3.57-32.53,.75-9-3.88-19.52-5.81-30.72-5.81-8.98,0-17.09,1.87-24.16,5.26-5.96-5.01-20.46-14.77-31.69-2.74-11.91,12.76-.39,30.12,4.11,35.91-1.68,5.47-2.69,11.35-2.95,17.53-.94,22.78,16.82,39.35,16.82,39.35l82.21,3.02s15.88-17.29,15.23-49.84c-.07-3.66-.49-7.1-1.2-10.34Z"/><path class="cls-9" d="M407.69,187.22c0,2.24-1.22,4.05-2.71,4.05s-2.71-1.81-2.71-4.05,1.21-4.05,2.71-4.05,2.71,1.81,2.71,4.05Z"/><path class="cls-9" d="M366.63,187.22c0,2.24-1.21,4.05-2.71,4.05s-2.71-1.81-2.71-4.05,1.22-4.05,2.71-4.05,2.71,1.81,2.71,4.05Z"/><g><path class="cls-7" d="M419.99,149.83s12.8-6.8,17.69,.27c4.89,7.08-2.54,16.2-2.54,16.2l-15.15-16.47Z"/><path class="cls-10" d="M419.99,149.83s12.8-6.8,17.69,.27c4.89,7.08-2.54,16.2-2.54,16.2l-15.15-16.47Z"/></g><g><path class="cls-7" d="M351.03,149.28s-12.22-7.8-17.66-1.13c-5.43,6.67,1.25,16.35,1.25,16.35l16.41-15.22Z"/><path class="cls-10" d="M351.03,149.28s-12.22-7.8-17.66-1.13c-5.43,6.67,1.25,16.35,1.25,16.35l16.41-15.22Z"/></g><path d="M407.69,187.22c0,2.24-1.22,4.05-2.71,4.05s-2.71-1.81-2.71-4.05,1.21-4.05,2.71-4.05,2.71,1.81,2.71,4.05Z"/><path d="M366.63,187.22c0,2.24-1.21,4.05-2.71,4.05s-2.71-1.81-2.71-4.05,1.22-4.05,2.71-4.05,2.71,1.81,2.71,4.05Z"/><g><path class="cls-7" d="M337.49,224.5s-47.96,58.99-59.31,93.04c-11.35,34.05,5.86,29.66,11.72,26,5.86-3.66,6.96-6.59,6.96-6.59,0,0,3.3,6.59,10.25,5.49,6.96-1.1,40.38-111.35,40.38-111.35l-9.99-6.59Z"/><path class="cls-7" d="M432.2,224.5s45.75,58.99,57.1,93.04c11.35,34.05-5.86,29.66-11.72,26-5.86-3.66-6.96-6.59-6.96-6.59,0,0-3.3,6.59-10.25,5.49-6.96-1.1-38.97-112.1-38.97-112.1l10.8-5.84Z"/><path class="cls-7" d="M458.14,323.94c-.83,25.84-28.51,35.28-54,37.83-9.07,.91-17.84,.96-25.05,.56-8.96-.49-19.11-1.22-28.95-3.04-.01,0-.03,0-.04-.01-13.86-2.53-27.11-7.21-35.6-16.34-1.34-1.43-2.55-2.98-3.64-4.65-2.14-3.29-3.76-7.03-4.73-11.33-6.83-30.12,17.63-80.19,35.32-92.61,17.69-12.42,82.01-18.4,96,15.06,0,0,21.84,39.53,20.7,74.53Z"/><path class="cls-5" d="M425.34,316.6c-1.34,22.59,3.5,36.63-21.2,45.18-9.07,.91-17.84,.96-25.05,.56-8.96-.49-19.11-1.22-28.95-3.04-.01,0-.03,0-.04-.01-1.15-.53-20.42-9.96-18.26-40.48,2.22-31.45,24.75-55.31,52-53.16,29.97,2.37,42.82,28.35,41.5,50.95Z"/><path class="cls-1" d="M455.89,334.92s-3.19-41.38-15.54-60.03c0,0,12.3,41.29,12.2,66.05l3.34-6.02Z"/><path class="cls-1" d="M331.67,264.47s-15.75,54.19-17.17,78.48c-1.34-1.43-2.55-2.98-3.64-4.65,1-9.8,6.1-52.81,20.81-73.82Z"/></g><g><g><path class="cls-7" d="M459.69,317.24c0-5.56-5.01-11.3-10.73-11.3-2.34,0-5.89,1.76-7.63,3.04-.22-.23,.23,.22,0,0,1.01-1.55,1.6-3.39,1.6-5.37,0-5.56-4.64-10.07-10.36-10.07-5.39,0-9.82,4-10.31,9.12-.79,.11,.77-.19,0,0-1.7-3.3-7.79-6.76-11.8-6.24-6.82,.88-10.15,5.65-10.15,11.21,0,2.96,1.32,5.61,3.41,7.45-2.25,3.4-3.93,7.35-4.82,11.68-3.27,15.9,5.26,30.97,19.05,33.65,13.79,2.68,27.63-8.03,30.9-23.94,.61-2.99,.81-5.94,.64-8.79,5.12-.61,10.2-5.31,10.2-10.45Z"/><path class="cls-10" d="M459.61,318.51c.96-7.64-7.32-15.31-15.3-11.63-.36,.17-3.51,1.54-2.98,2.1-.22-.23,.23,.22,0,0,1.01-1.55,1.6-3.39,1.6-5.37,0-5.56-4.64-10.07-10.36-10.07-5.39,0-9.82,4-10.31,9.12-.79,.11,.77-.19,0,0-1.7-3.3-8.27-7.51-13.82-5.91-5.49,1.58-8.13,5.32-8.13,10.88,0,2.96,1.32,5.61,3.41,7.45-2.25,3.4-3.93,7.35-4.82,11.68-3.27,15.9,5.26,30.97,19.05,33.65,13.79,2.68,27.63-8.03,30.9-23.94,.61-2.99,.81-5.94,.64-8.79,.01,.17,4.15-1.22,4.56-1.42,1.96-1,3.59-2.61,4.57-4.53,.54-1.05,.86-2.14,1-3.22Z"/><ellipse class="cls-10" cx="424.41" cy="336.57" rx="15.94" ry="15.49"/><path class="cls-10" d="M437.92,306.12c0,3.07-2.56,5.56-5.72,5.56s-5.72-2.49-5.72-5.56,2.56-5.56,5.72-5.56,5.72,2.49,5.72,5.56Z"/><path class="cls-10" d="M418.19,306.94c0,3.07-2.56,5.56-5.72,5.56s-5.72-2.49-5.72-5.56,2.56-5.56,5.72-5.56,5.72,2.49,5.72,5.56Z"/><path class="cls-10" d="M454.09,317.24c0,3.07-2.56,5.56-5.72,5.56s-5.72-2.49-5.72-5.56,2.56-5.56,5.72-5.56,5.72,2.49,5.72,5.56Z"/></g><g><path class="cls-7" d="M353.51,301.9c-3.5-4.86-11.16-5.77-15.64-2.32-1.84,1.41-3.35,4.41-3.9,6.45-.32-.05,.32,.04,0,0-.2-1.83-.91-3.63-2.17-5.17-3.55-4.36-10.07-5.1-14.55-1.65-4.23,3.25-5.14,9.06-2.27,13.37-.54,.56-1.05,1.16-1.54,1.78-3.44-1.56-7.63-1.23-10.81,1.22-4.49,3.45-5.25,9.78-1.7,14.15,1.89,2.32,4.62,3.6,7.43,3.79,.41,4.02,1.6,8.13,3.67,12.07,7.58,14.45,23.89,21.12,36.42,14.91,12.53-6.21,16.54-22.96,8.96-37.41-1.42-2.71-3.15-5.15-5.11-7.28,3.63-3.57,4.24-9.68,1.2-13.89Z"/><path class="cls-10" d="M353.51,301.9c-3.96-5.44-11.8-5.32-16.28-1.87-1.84,1.41-2.71,3.96-3.26,6-.32-.05,.32,.04,0,0-.2-1.83-.91-3.63-2.17-5.17-3.55-4.36-10.07-5.1-14.55-1.65-4.23,3.25-5.14,9.06-2.27,13.37-.54,.56,.75,.27,0,0-1.6-.59-3.62-1.72-6.06-1.49-8.77,.85-13.16,12.27-7.99,18.62,1.89,2.32,4.62,3.6,7.43,3.79,.41,4.02,1.6,8.13,3.67,12.07,7.58,14.45,23.89,21.12,36.42,14.91,12.53-6.21,16.54-22.96,8.96-37.41-1.42-2.71-3.15-5.15-5.11-7.28,3.63-3.57,4.26-9.69,1.2-13.89Z"/><ellipse class="cls-10" cx="336.35" cy="338.29" rx="15.94" ry="15.49"/><path class="cls-10" d="M316.39,322.8c0,3.07-2.56,5.56-5.72,5.56s-5.72-2.49-5.72-5.56,2.56-5.56,5.72-5.56,5.72,2.49,5.72,5.56Z"/><path class="cls-10" d="M329.97,308.78c0,3.07-2.56,5.56-5.72,5.56s-5.72-2.49-5.72-5.56,2.56-5.56,5.72-5.56,5.72,2.49,5.72,5.56Z"/><path class="cls-10" d="M349.99,308.78c0,3.07-2.56,5.56-5.72,5.56s-5.72-2.49-5.72-5.56,2.56-5.56,5.72-5.56,5.72,2.49,5.72,5.56Z"/></g></g><path class="cls-5" d="M371.59,198.77c.17-3.92,1.13-7.77,2.51-10.78,1.72-3.74,5.39-7.99,10.47-7.45,5.11,.54,9.34,4.96,11.17,8.92,2.19,4.74,3.16,10.29,2.2,15.36-1.91,10.01-8.8,15.12-17.38,11.37-7-3.06-9.27-10.36-8.97-17.42Z"/><g><path d="M389.12,193.29c0,1.11-2.17,2.02-4.86,2.02s-4.86-.9-4.86-2.02,2.17-2.02,4.86-2.02,4.86,.9,4.86,2.02Z"/><path d="M384.27,205.31c-.37,0-.67-.3-.67-.67v-11.36c0-.37,.3-.67,.67-.67s.67,.3,.67,.67v11.36c0,.37-.3,.67-.67,.67Z"/><path class="cls-11" d="M389.12,193.29c0-1.11-2.17-2.02-4.86-2.02s-4.86,.9-4.86,2.02c0,1.02,1.82,1.85,4.19,1.99v9.37c0,.37,.3,.67,.67,.67s.67-.3,.67-.67v-9.37c2.36-.14,4.19-.97,4.19-1.99Z"/></g></g><path class="cls-5" d="M414.39,198.26c0,2.33-2.71,4.23-6.06,4.23s-6.06-1.89-6.06-4.23,2.71-4.23,6.06-4.23,6.06,1.89,6.06,4.23Z"/><ellipse class="cls-5" cx="361.2" cy="198.26" rx="6.06" ry="4.23"/><g><path class="cls-4" d="M388.45,232.03l-17.61-10.55c-1.35-.81-3.09-.37-3.9,.98-.23,.38-.37,.82-.4,1.26l-1.06,13.56c-.12,1.56,1.05,2.93,2.61,3.05,.45,.03,.9-.04,1.32-.21l19.03-8.09Z"/><path class="cls-4" d="M382.43,232.92l17.24-11.15c1.31-.85,3.06-.49,3.92,.82,.25,.38,.4,.81,.45,1.26l1.44,13.52c.16,1.56-.97,2.96-2.53,3.12-.45,.05-.9-.01-1.31-.17l-19.2-7.4Z"/><path class="cls-4" d="M386.45,238.63l-.47,.03c-3.56,.19-6.6-2.54-6.8-6.09h0c-.19-3.55,2.53-6.59,6.08-6.8l.47-.03c3.55-.19,6.59,2.51,6.81,6.06h0c.2,3.57-2.53,6.62-6.09,6.83Z"/></g><path class="cls-12" d="M378.42,143.57c5.31-2.73,10.66,2.86,12.23,7.51,1.04,3.06,.82,6.63-.31,9.64-.64,1.69-1.69,3.25-3.19,4.26-1.65,1.11-3.79,1.46-5.71,.94-2.71-.74-4.92-3.19-4.92-6.06,0-3.51,3.34-4.82,6.26-3.47"/></g></g></svg>