<svg xmlns="http://www.w3.org/2000/svg" viewBox="0 0 759.09 500"><defs><style>.cls-1{isolation:isolate;}.cls-2{fill:#fda9a9;}.cls-3,.cls-4{fill:#f4f2f2;}.cls-4{mix-blend-mode:overlay;}.cls-5{fill:#fd9202;}.cls-6{fill:#de7e06;}.cls-7{fill:#fff;}.cls-8{fill:#d50c68;}.cls-9{fill:#d5506e;}.cls-10{fill:#004759;}</style></defs><g class="cls-1"><g id="Objects"><path class="cls-2" d="M238,219.42s-11.13-9.6-15.55-3.83,10.31,22.87,20.22,22.76,15.7-25.55,9-31S238,219.42,238,219.42Z"/><path class="cls-2" d="M700.51,194.38s-11.13-9.6-15.55-3.83,10.31,22.87,20.22,22.76,15.7-25.55,9-31S700.51,194.38,700.51,194.38Z"/><path class="cls-2" d="M506.14,124.09s-3.72-12.47-10.85-8.07-2,17.89,6.81,22.51,21.18-10.07,19.07-15.54C517.5,113.45,506.14,124.09,506.14,124.09Z"/><path class="cls-2" d="M77.47,188.69s-3.72-12.47-10.85-8.07-2,17.9,6.81,22.52S94.6,193.07,92.5,187.59C88.83,178.05,77.47,188.69,77.47,188.69Z"/><path class="cls-2" d="M382.59,44.78s-3.71-12.47-10.84-8.07-2,17.9,6.8,22.52,21.18-10.07,19.07-15.55C394,34.15,382.59,44.78,382.59,44.78Z"/><path class="cls-2" d="M430.57,397.25s-5.93-11.58-12.14-5.95,1.31,18,10.8,20.9,19-13.77,15.92-18.77C439.8,384.72,430.57,397.25,430.57,397.25Z"/><path class="cls-2" d="M106.22,73.14s-5.93-11.58-12.14-6,1.31,18,10.81,20.9,19-13.77,15.91-18.77C115.45,60.61,106.22,73.14,106.22,73.14Z"/><path class="cls-2" d="M101.59,388.07S97.88,375.6,90.75,380s-2,17.9,6.8,22.52,21.18-10.07,19.07-15.55C113,377.43,101.59,388.07,101.59,388.07Z"/><path class="cls-2" d="M652.86,355s-5.93-11.58-12.14-5.95,1.3,18,10.8,20.9,19-13.77,15.92-18.77C662.09,342.43,652.86,355,652.86,355Z"/><path class="cls-3" d="M589.53,408.53a10.56,10.56,0,0,0-4.61.48,9.26,9.26,0,0,0-8.47-9.24,9.68,9.68,0,0,0-8.25,3,16.06,16.06,0,0,0-10.07-5c-7.86-.92-14.85,3.56-15.88,10a12.2,12.2,0,0,0-3.84-.91,11.22,11.22,0,1,0-1.54,22.36,12,12,0,0,0,5.93-1.1,16.33,16.33,0,0,0,24,2.16,17.29,17.29,0,0,0,5.42,1.56,15.56,15.56,0,0,0,12.76-4,11.2,11.2,0,0,0,2.27.52,10,10,0,1,0,2.3-19.78Z"/><path class="cls-3" d="M444.08,102.79c0-4-3.89-7.17-8.66-7.17a10,10,0,0,0-2.15.23,8.21,8.21,0,0,0-15.18.26A8.22,8.22,0,0,0,413.94,95c-4.17,0-7.56,3-7.64,6.78-3.91.3-7,3.26-7,6.88,0,3.81,3.43,6.91,7.65,6.91a8.17,8.17,0,0,0,4.36-1.24c1,3,4.36,5.28,8.35,5.28a8.86,8.86,0,0,0,8-4.35,9.81,9.81,0,0,0,13.21-.34,9,9,0,0,0,2.17.26c4.26,0,7.72-2.79,7.72-6.23C450.74,105.8,447.84,103.21,444.08,102.79Z"/><path class="cls-3" d="M280.92,406c0-4.93-4.82-8.91-10.75-8.91a12.18,12.18,0,0,0-2.66.29,10.2,10.2,0,0,0-18.86.32,10.16,10.16,0,0,0-5.15-1.38c-5.18,0-9.39,3.75-9.48,8.42-4.86.38-8.67,4.05-8.67,8.54,0,4.74,4.25,8.58,9.5,8.58a10.1,10.1,0,0,0,5.41-1.54c1.25,3.78,5.41,6.57,10.37,6.57,4.43,0,8.23-2.23,9.88-5.41a12.21,12.21,0,0,0,16.4-.42,11.88,11.88,0,0,0,2.7.32c5.29,0,9.58-3.46,9.58-7.73C289.19,409.75,285.59,406.52,280.92,406Z"/><path class="cls-3" d="M320.76,48.06c0-4.14-4.06-7.49-9.05-7.49a10.25,10.25,0,0,0-2.24.24,8.58,8.58,0,0,0-15.87.27,8.6,8.6,0,0,0-4.34-1.16c-4.36,0-7.9,3.16-8,7.08-4.09.32-7.3,3.42-7.3,7.19,0,4,3.58,7.23,8,7.23a8.62,8.62,0,0,0,4.56-1.3c1,3.18,4.55,5.53,8.72,5.53a9.27,9.27,0,0,0,8.32-4.55,10,10,0,0,0,6.72,2.49,9.77,9.77,0,0,0,7.08-2.85,9.87,9.87,0,0,0,2.27.27c4.46,0,8.07-2.91,8.07-6.51C327.72,51.21,324.69,48.5,320.76,48.06Z"/><path class="cls-3" d="M234,126.56h0c0-2.32-2.44-4.19-5.45-4.19a7.53,7.53,0,0,0-1.35.13,5.32,5.32,0,0,0-9.54.16A5.48,5.48,0,0,0,215,122c-2.63,0-4.76,1.77-4.8,4-2.46.18-4.39,1.88-4.39,4s2.15,4,4.81,4a5.38,5.38,0,0,0,2.74-.73c.63,1.78,2.74,3.09,5.25,3.09a5.67,5.67,0,0,0,5-2.54,6.26,6.26,0,0,0,4,1.39,6.16,6.16,0,0,0,4.28-1.6,5.94,5.94,0,0,0,1.35.16c2.68,0,4.85-1.62,4.85-3.63C238.16,128.31,236.34,126.81,234,126.56Z"/><path class="cls-3" d="M584.06,58.66c0-3.57-3.78-6.46-8.42-6.46a10.87,10.87,0,0,0-2.08.21,8.23,8.23,0,0,0-14.75.23,8.44,8.44,0,0,0-4-1c-4.06,0-7.35,2.73-7.42,6.11-3.8.28-6.78,2.94-6.78,6.2,0,3.44,3.32,6.23,7.43,6.23a8.48,8.48,0,0,0,4.24-1.12c1,2.74,4.23,4.76,8.1,4.76,3.47,0,6.45-1.61,7.74-3.92a9.61,9.61,0,0,0,6.24,2.15,9.51,9.51,0,0,0,6.59-2.45,10.26,10.26,0,0,0,2.11.23c4.14,0,7.5-2.52,7.5-5.61C590.53,61.38,587.71,59,584.06,58.66Z"/><path class="cls-3" d="M613.91,145.26a5.5,5.5,0,0,0-5.58-5,5.71,5.71,0,0,0-2.94.81,6.78,6.78,0,0,0-5.82-3.21,6.6,6.6,0,0,0-6.73,6.46,4.89,4.89,0,0,0,0,.54,7,7,0,0,0-1.3-.12,6.48,6.48,0,1,0,0,12.92,7.4,7.4,0,0,0,4.08-1.22,6.91,6.91,0,0,0,6.72,4.71,7,7,0,0,0,6.42-3.92,9.31,9.31,0,0,0,4,.86c4.4,0,8-2.89,8-6.46C620.71,148.4,617.76,145.72,613.91,145.26Z"/><path class="cls-3" d="M321.78,179a7.62,7.62,0,0,0-7.73-6.91,7.92,7.92,0,0,0-4.08,1.12,9.37,9.37,0,0,0-8.05-4.45,9.14,9.14,0,0,0-9.33,8.94c0,.26,0,.5,0,.75a10.57,10.57,0,0,0-1.8-.16c-5.35,0-9.68,4-9.68,8.95s4.33,8.95,9.68,8.95a10.25,10.25,0,0,0,5.65-1.69,9.59,9.59,0,0,0,9.31,6.53,9.71,9.71,0,0,0,8.9-5.43,13.07,13.07,0,0,0,5.49,1.19c6.08,0,11-4,11-9C331.2,183.38,327.11,179.67,321.78,179Z"/><path class="cls-4" d="M563,263.49c-.76-30.6-31.2-54.75-68.1-54a80,80,0,0,0-16.52,2.07c-12-22.58-34.06-37.51-59-37-25.66.55-47.6,17.33-58.33,41.51a63.39,63.39,0,0,0-32.22-7.86c-32.25.68-57.95,24.58-57.95,53.6-30.16,3-53.38,26.41-52.79,54.33.63,29.49,27.59,52.84,60.22,52.15a63.27,63.27,0,0,0,33.49-10.25c8.28,23.36,34.59,40.11,65.4,39.45,19.79-.41,37.41-7.92,49.43-19.51,10.45,12.88,97.51,26.08,125.32-17.69.17-.28-.05-.64-.07-1,1.64.07,3.28.11,5,.07,32.93-.7,59.18-22.8,58.62-49.38C614.92,285.73,592.11,266.1,563,263.49Z"/><path class="cls-5" d="M530.33,342.24s3.51-1.29.45-6.89c-1.83-3.36-1-3.75-.14-3.53a2.67,2.67,0,0,1,1.78,1.51,17.31,17.31,0,0,1,1.26,3.95,4.53,4.53,0,0,0,3.33,3.57c2.68.67,12.57,4,11.75,5.51-.54,1-8.62-1.61-8.62-1.61s10.6,7.32,6.6,6.85-7.12-8.09-13-7.49S530.33,342.24,530.33,342.24Z"/><path class="cls-5" d="M532.07,343.52l-.9.7s-34.55,0-48.94-6.69c0,0-1.79-.69-.92-1.47a1.39,1.39,0,0,1,1.49-.2c3.38,1.43,20.37,7.91,47.53,6.38C530.33,342.24,533,342.35,532.07,343.52Z"/><path class="cls-5" d="M538.15,357.52a1.91,1.91,0,0,0,2.08-1.66,4.78,4.78,0,0,0-.34-2.71c-.91-1.65-1.2-4.27.88-3.29s.72,5.63,2.11,7,7.56,3.78,11.1,5.05,2.19,3.32-.8,2.09-4.62-1.81-4.62-1.81,7.14,5.8,4.16,5.78-8.09-8.1-12.53-8.5-39-2.06-54.36-14.47a.91.91,0,0,1,.83-1.4,2.14,2.14,0,0,1,1.44.53C490.1,345.91,502.13,355.13,538.15,357.52Z"/><polygon class="cls-5" points="343.91 254.55 251.41 270.73 344.21 263.23 343.91 254.55"/><polygon class="cls-6" points="251.41 270.73 342.08 269.76 344.21 263.23 251.41 270.73"/><path class="cls-7" d="M517.73,318.7c3.6-4.92,3.95-8.84-1.56-5.27a14.54,14.54,0,0,1-4.11,1.82c-3,.8-7.21,1.2-9.84-1.45-4.35-4.4-16.44-28.6-61-9.88a41.54,41.54,0,0,1-26.62,2,37,37,0,0,1-16.05-8.73c-9-8.37-13.63-21.26-16-30.64a39.41,39.41,0,0,1-1-7.58c0-.31,0-.62-.07-.93a21.37,21.37,0,1,0-19.25,23.3h0a9.93,9.93,0,0,1,5.06.73c6.35,2.86,13.9,11.36,26.11,28.47,24.18,33.88,82.4,74.07,128.57,10.5C524.3,317.92,522.78,313.65,517.73,318.7Z"/><path class="cls-8" d="M497.47,270.68c-1.77-7.82-9.71-4.49-9.71-4.49s10.38-8.25,10.09-14.84-7.83-4-7.83-4,10.31-7.15,9.15-14.4-8.84-5.12-8.84-5.12,9.84-11.09,7.48-18.7-8.73-3.52-8.73-3.52,8.63-7,6.86-13.54S485,188.39,485,188.39s6.75-9.39,4.66-14.94c-1.29-3.43-6.3-2-9.93-.37-4.88,5.73-11.23,13.3-19.44,23.3-28.92,35.23-23.87,59.35-29.9,85.6a41.59,41.59,0,0,1-9.53,18c-7.51,8.54-.67,22.16,10.67,21.18,19.2-1.66,41.24-16.22,41.24-16.22A90.74,90.74,0,0,0,490,292.09C493.48,286.11,498.68,276,497.47,270.68Z"/><polygon class="cls-7" points="438.13 334.19 409.41 308.67 424.66 304.06 463.3 309.02 471.81 320.01 438.13 334.19"/><path class="cls-9" d="M504.63,289.33c1.15-7.92-7.45-7.68-7.45-7.68s12.65-4,14.76-10.21-5.86-6.59-5.86-6.59,12.2-3,13.73-10.14-6.41-8-6.41-8S526.57,240,527.12,232s-6.89-6.43-6.89-6.43,10.58-3.44,11.28-10.16-8.9-7.33-8.9-7.33,9.68-6.34,9.73-12.27c0-3.67-5.16-4.11-9.13-3.92-6.61,3.59-15.26,8.37-26.52,14.75C457,229.09,453.05,253.41,438,275.72a41.48,41.48,0,0,1-15.36,13.34c-10.08,5.27-8.6,20.43,2.33,23.6,18.51,5.37,44.31-.28,44.31-.28A90.49,90.49,0,0,0,490,306.62C495.35,302.3,503.84,294.71,504.63,289.33Z"/><path class="cls-2" d="M368.36,268.4c-.36,3.38-4,4.51-8.31,4.06s-7.63-2.32-7.28-5.7,4-4.52,8.31-4.07S368.72,265,368.36,268.4Z"/><path class="cls-10" d="M355.36,260.93c-.25,0-.5,0-.76-.08a7.68,7.68,0,0,1-6.47-5,1.15,1.15,0,0,1,2.19-.67,5.45,5.45,0,0,0,4.61,3.36c3.57.53,5.45-3.34,5.47-3.38a1.15,1.15,0,0,1,2.08,1C362.38,256.38,360.12,261.13,355.36,260.93Z"/><path class="cls-7" d="M288.55,264.65s-3.86-26-21.37-24.13C267.18,240.52,275.72,267,288.55,264.65Z"/><path class="cls-7" d="M288.56,264.69s7.49-23.16,24.85-20.15C313.41,244.54,301.21,267.85,288.56,264.69Z"/><path class="cls-7" d="M288.41,263.57l-3.93,5.08c-17,23-71.57,101.51,22.59,88.84,48.7-6.56-17.85-93.16-17.85-93.16"/><path class="cls-3" d="M708.81,467.61c0-4.92-4.82-8.91-10.75-8.91a12.83,12.83,0,0,0-2.66.29,10.2,10.2,0,0,0-18.86.32,10.16,10.16,0,0,0-5.15-1.38c-5.18,0-9.39,3.76-9.48,8.42-4.86.38-8.67,4-8.67,8.54,0,4.74,4.25,8.58,9.49,8.58a10.11,10.11,0,0,0,5.42-1.54c1.25,3.78,5.41,6.57,10.37,6.57,4.43,0,8.23-2.23,9.88-5.41a12.21,12.21,0,0,0,16.4-.42,11.34,11.34,0,0,0,2.7.32c5.29,0,9.58-3.46,9.58-7.73C717.08,471.35,713.48,468.13,708.81,467.61Z"/><path class="cls-3" d="M748.65,109.66c0-4.14-4.06-7.49-9-7.49a10.83,10.83,0,0,0-2.24.24,8.58,8.58,0,0,0-15.87.27,8.6,8.6,0,0,0-4.34-1.16c-4.36,0-7.9,3.16-8,7.08-4.09.32-7.3,3.42-7.3,7.2,0,4,3.58,7.22,8,7.22a8.53,8.53,0,0,0,4.56-1.3c1.05,3.19,4.55,5.53,8.72,5.53a9.25,9.25,0,0,0,8.32-4.55,10.28,10.28,0,0,0,13.8-.35,9.87,9.87,0,0,0,2.27.26c4.46,0,8.07-2.91,8.07-6.51C755.61,112.81,752.58,110.1,748.65,109.66Z"/><path class="cls-3" d="M661.87,188.16h0c0-2.31-2.44-4.19-5.45-4.19a7.36,7.36,0,0,0-1.35.13,5.33,5.33,0,0,0-9.55.16,5.42,5.42,0,0,0-2.6-.65c-2.63,0-4.76,1.77-4.8,4-2.46.18-4.39,1.89-4.39,4s2.15,4,4.81,4a5.38,5.38,0,0,0,2.74-.73c.63,1.78,2.74,3.09,5.25,3.09a5.65,5.65,0,0,0,5-2.54,6.26,6.26,0,0,0,4,1.39,6.12,6.12,0,0,0,4.28-1.6,5.94,5.94,0,0,0,1.35.16c2.68,0,4.85-1.62,4.85-3.63C666.05,189.91,664.23,188.41,661.87,188.16Z"/><path class="cls-3" d="M713.14,362a5.5,5.5,0,0,0-5.58-5,5.77,5.77,0,0,0-2.95.81,6.77,6.77,0,0,0-5.81-3.22,6.6,6.6,0,0,0-6.73,6.46,4.89,4.89,0,0,0,0,.54,8.05,8.05,0,0,0-1.3-.11,6.48,6.48,0,1,0,0,12.91,7.26,7.26,0,0,0,4.07-1.22,6.94,6.94,0,0,0,6.73,4.72A7,7,0,0,0,708,374a9.46,9.46,0,0,0,4,.86c4.4,0,8-2.89,8-6.46C719.94,365.17,717,362.49,713.14,362Z"/><path class="cls-3" d="M749.67,240.64a7.62,7.62,0,0,0-7.73-6.91,8,8,0,0,0-4.08,1.12,9.39,9.39,0,0,0-8.05-4.45,9.15,9.15,0,0,0-9.33,8.95c0,.25,0,.5,0,.74a10.57,10.57,0,0,0-1.8-.16c-5.35,0-9.68,4-9.68,8.95s4.33,8.95,9.68,8.95a10.17,10.17,0,0,0,5.65-1.69,9.59,9.59,0,0,0,9.31,6.53,9.73,9.73,0,0,0,8.9-5.43,13.06,13.06,0,0,0,5.48,1.19c6.09,0,11-4,11-9C759.09,245,755,241.28,749.67,240.64Z"/><path class="cls-3" d="M133.8,459.51a10.75,10.75,0,0,0-4.61.49,9.25,9.25,0,0,0-8.46-9.24,9.7,9.7,0,0,0-8.25,2.94,16.11,16.11,0,0,0-10.08-5c-7.85-.91-14.84,3.57-15.88,10.05a12.07,12.07,0,0,0-3.84-.91,11.22,11.22,0,1,0-1.53,22.36,12.12,12.12,0,0,0,5.93-1.1,16.35,16.35,0,0,0,24,2.16,17,17,0,0,0,5.42,1.55,15.52,15.52,0,0,0,12.76-4.05,11.21,11.21,0,0,0,2.27.53,10,10,0,1,0,2.29-19.79Z"/><path class="cls-3" d="M44.76,45.48c0-4-3.89-7.17-8.67-7.17a10,10,0,0,0-2.14.23,8.53,8.53,0,0,0-7.53-4.95,8.58,8.58,0,0,0-7.65,5.21,8.22,8.22,0,0,0-4.15-1.11c-4.17,0-7.56,3-7.64,6.78-3.91.3-7,3.26-7,6.88,0,3.81,3.42,6.91,7.65,6.91A8.17,8.17,0,0,0,12,57c1,3,4.36,5.29,8.35,5.29a8.86,8.86,0,0,0,8-4.36,9.81,9.81,0,0,0,13.2-.33,9.64,9.64,0,0,0,2.18.25c4.26,0,7.71-2.79,7.71-6.23C51.41,48.5,48.52,45.9,44.76,45.48Z"/><path class="cls-3" d="M93.86,283c0-4.92-4.83-8.91-10.76-8.91a12.83,12.83,0,0,0-2.66.29,10.2,10.2,0,0,0-18.85.32,10.28,10.28,0,0,0-5.15-1.37c-5.19,0-9.39,3.75-9.49,8.41-4.85.38-8.66,4.06-8.66,8.54,0,4.74,4.25,8.59,9.49,8.59a10.14,10.14,0,0,0,5.42-1.55c1.25,3.79,5.41,6.57,10.36,6.57,4.43,0,8.24-2.22,9.88-5.4a11.82,11.82,0,0,0,8,3,11.7,11.7,0,0,0,8.42-3.38,11.73,11.73,0,0,0,2.69.31c5.29,0,9.58-3.46,9.58-7.73C102.12,286.75,98.53,283.53,93.86,283Z"/><path class="cls-3" d="M81.77,150.28c0-3.57-3.78-6.47-8.42-6.47a10.87,10.87,0,0,0-2.08.21,8.23,8.23,0,0,0-14.75.24,8.5,8.5,0,0,0-4-1c-4.06,0-7.35,2.72-7.42,6.1-3.8.28-6.78,2.95-6.78,6.2,0,3.44,3.32,6.23,7.42,6.23A8.42,8.42,0,0,0,50,160.67c1,2.74,4.24,4.76,8.11,4.76,3.47,0,6.45-1.61,7.73-3.92A9.64,9.64,0,0,0,72,163.66a9.51,9.51,0,0,0,6.59-2.45,10.26,10.26,0,0,0,2.11.23c4.14,0,7.49-2.51,7.49-5.61C88.23,153,85.42,150.65,81.77,150.28Z"/><path class="cls-3" d="M158.19,196.25a5.5,5.5,0,0,0-5.58-5,5.77,5.77,0,0,0-3,.81,6.77,6.77,0,0,0-5.81-3.22,6.6,6.6,0,0,0-6.73,6.46,4.75,4.75,0,0,0,0,.54,8.05,8.05,0,0,0-1.3-.11,6.48,6.48,0,1,0,0,12.91,7.26,7.26,0,0,0,4.07-1.22,6.94,6.94,0,0,0,6.73,4.72,7,7,0,0,0,6.42-3.92,9.46,9.46,0,0,0,4,.86c4.4,0,8-2.89,8-6.46C165,199.38,162,196.71,158.19,196.25Z"/><path class="cls-3" d="M41.32,362.11a7.64,7.64,0,0,0-7.73-6.92,8,8,0,0,0-4.09,1.13,9.38,9.38,0,0,0-8-4.46,9.15,9.15,0,0,0-9.33,8.95c0,.25,0,.5,0,.75a10.57,10.57,0,0,0-1.8-.16c-5.34,0-9.68,4-9.68,8.94s4.34,9,9.68,9A10.17,10.17,0,0,0,16,377.6a9.58,9.58,0,0,0,9.31,6.53,9.74,9.74,0,0,0,8.91-5.43,12.84,12.84,0,0,0,5.48,1.19c6.09,0,11-4,11-8.94C50.73,366.45,46.64,362.74,41.32,362.11Z"/></g></g></svg>