<?xml version="1.0" encoding="UTF-8"?><svg id="Isolatiemodus" xmlns="http://www.w3.org/2000/svg" viewBox="0 0 751.79 155.67"><defs><style>.cls-1{fill:#f4a7a9;}.cls-2{fill:#d50c68;}.cls-3{fill:#c3dff3;}</style></defs><path class="cls-1" d="M137.93,71.52s-3.72-12.47-10.85-8.07c-7.13,4.4-1.99,17.9,6.81,22.52,8.8,4.62,21.18-10.07,19.07-15.55-3.67-9.54-15.03,1.1-15.03,1.1Z"/><path class="cls-2" d="M335.29,130.85s-6.02-20.18-17.55-13.06c-11.54,7.12-3.23,28.97,11.02,36.45,14.25,7.48,34.28-16.3,30.87-25.17-5.94-15.43-24.33,1.78-24.33,1.78Z"/><path class="cls-1" d="M516.34,13.38s-4.18-14.03-12.2-9.08c-8.02,4.95-2.24,20.14,7.66,25.34,9.9,5.2,23.83-11.33,21.46-17.5-4.13-10.73-16.92,1.24-16.92,1.24Z"/><path class="cls-1" d="M264.81,32.37s-11.13-9.59-15.55-3.83c-4.42,5.76,10.31,22.87,20.22,22.77,9.91-.1,15.7-25.56,9.05-31.04-6.66-5.48-13.71,12.1-13.71,12.1Z"/><path class="cls-1" d="M611.13,133.08s-11.13-9.59-15.55-3.83c-4.42,5.76,10.31,22.87,20.22,22.77,9.91-.1,15.7-25.56,9.05-31.04-6.66-5.48-13.71,12.1-13.71,12.1Z"/><path class="cls-1" d="M63.71,135.51s-5.93-11.58-12.14-5.95c-6.21,5.63,1.31,17.96,10.8,20.9,9.5,2.94,18.98-13.77,15.91-18.77-5.35-8.71-14.58,3.82-14.58,3.82Z"/><path class="cls-1" d="M434.56,82.96s-5.93-11.58-12.14-5.95c-6.21,5.63,1.31,17.96,10.8,20.9,9.5,2.94,18.98-13.77,15.91-18.77-5.35-8.71-14.58,3.82-14.58,3.82Z"/><path class="cls-2" d="M631.31,30.54s-10.76-21.01-22.02-10.8c-11.26,10.21,2.37,32.58,19.6,37.91,17.23,5.33,34.44-24.98,28.87-34.05-9.7-15.8-26.45,6.94-26.45,6.94Z"/><path class="cls-2" d="M56.83,30.25s-15.93-13.56-22.31-5.36c-6.37,8.2,14.7,32.4,28.92,32.21,14.22-.19,22.65-36.33,13.12-44.07-9.53-7.75-19.74,17.23-19.74,17.23Z"/><path class="cls-3" d="M138.21,136.76s-1.79-6.01-5.23-3.89c-3.44,2.12-.96,8.63,3.28,10.85,4.24,2.23,10.21-4.85,9.19-7.49-1.77-4.6-7.24,.53-7.24,.53Z"/><path class="cls-3" d="M117.09,9.55s-1.79-6.01-5.23-3.89c-3.44,2.12-.96,8.63,3.28,10.85,4.24,2.23,10.21-4.85,9.19-7.49-1.77-4.6-7.24,.53-7.24,.53Z"/><path class="cls-3" d="M328.79,63.74s-1.79-6.01-5.23-3.89c-3.44,2.12-.96,8.63,3.28,10.85,4.24,2.23,10.21-4.85,9.19-7.49-1.77-4.6-7.24,.53-7.24,.53Z"/><path class="cls-3" d="M381.2,143.75s-1.79-6.01-5.23-3.89c-3.44,2.12-.96,8.63,3.28,10.85,4.24,2.23,10.21-4.85,9.19-7.49-1.77-4.6-7.24,.53-7.24,.53Z"/><path class="cls-3" d="M229.94,97.06s-1.79-6.01-5.23-3.89c-3.44,2.12-.96,8.63,3.28,10.85,4.24,2.23,10.21-4.85,9.19-7.49-1.77-4.6-7.24,.53-7.24,.53Z"/><path class="cls-3" d="M456.57,52.01s-1.79-6.01-5.23-3.89c-3.44,2.12-.96,8.63,3.28,10.85,4.24,2.23,10.21-4.85,9.19-7.49-1.77-4.6-7.24,.53-7.24,.53Z"/><path class="cls-3" d="M509.58,132.02s-1.79-6.01-5.23-3.89c-3.44,2.12-.96,8.63,3.28,10.85,4.24,2.23,10.21-4.85,9.19-7.49-1.77-4.6-7.24,.53-7.24,.53Z"/><path class="cls-3" d="M707.91,137.88s-1.79-6.01-5.23-3.89c-3.44,2.12-.96,8.63,3.28,10.85,4.24,2.23,10.21-4.85,9.19-7.49-1.77-4.6-7.24,.53-7.24,.53Z"/><path class="cls-3" d="M744.43,63.74s-1.79-6.01-5.23-3.89c-3.44,2.12-.96,8.63,3.28,10.85,4.24,2.23,10.21-4.85,9.19-7.49-1.77-4.6-7.24,.53-7.24,.53Z"/><path class="cls-3" d="M558.32,69.6s-1.79-6.01-5.23-3.89c-3.44,2.12-.96,8.63,3.28,10.85,4.24,2.23,10.21-4.85,9.19-7.49-1.77-4.6-7.24,.53-7.24,.53Z"/><path class="cls-3" d="M700.81,4.34s-1.79-6.01-5.23-3.89c-3.44,2.12-.96,8.63,3.28,10.85,4.24,2.23,10.21-4.85,9.19-7.49-1.77-4.6-7.24,.53-7.24,.53Z"/><path class="cls-3" d="M393.85,15.42s-1.79-6.01-5.23-3.89c-3.44,2.12-.96,8.63,3.28,10.85,4.24,2.23,10.21-4.85,9.19-7.49-1.77-4.6-7.24,.53-7.24,.53Z"/><path class="cls-3" d="M208.63,21.28s-1.79-6.01-5.23-3.89c-3.44,2.12-.96,8.63,3.28,10.85,4.24,2.23,10.21-4.85,9.19-7.49-1.77-4.6-7.24,.53-7.24,.53Z"/><path class="cls-3" d="M56.74,97.14s-1.79-6.01-5.23-3.89c-3.44,2.12-.96,8.63,3.28,10.85,4.24,2.23,10.21-4.85,9.19-7.49-1.77-4.6-7.24,.53-7.24,.53Z"/><path class="cls-3" d="M6.85,49.78s-1.79-6.01-5.23-3.89c-3.44,2.12-.96,8.63,3.28,10.85,4.24,2.23,10.21-4.85,9.19-7.49-1.77-4.6-7.24,.53-7.24,.53Z"/><path class="cls-3" d="M665.67,85.4s-1.79-6.01-5.23-3.89c-3.44,2.12-.96,8.63,3.28,10.85,4.24,2.23,10.21-4.85,9.19-7.49-1.77-4.6-7.24,.53-7.24,.53Z"/></svg>