<?xml version="1.0" encoding="utf-8"?>
<!-- Generator: Adobe Illustrator 16.0.0, SVG Export Plug-In . SVG Version: 6.00 Build 0)  -->
<!DOCTYPE svg PUBLIC "-//W3C//DTD SVG 1.0//EN" "http://www.w3.org/TR/2001/REC-SVG-20010904/DTD/svg10.dtd">
<svg version="1.0" id="Layer_1" xmlns="http://www.w3.org/2000/svg" xmlns:xlink="http://www.w3.org/1999/xlink" x="0px" y="0px"
	 width="100px" height="100px" viewBox="0 0 100 100" enable-background="new 0 0 100 100" xml:space="preserve">
<path d="M76.095,23.905c-5.208-5.208-13.649-5.208-18.854,0L50,31.145c-4.388,4.385-5.032,11.055-2.024,16.166l-0.664,0.667
	c-5.111-3.011-11.781-2.366-16.169,2.021l-7.236,7.24c-5.208,5.209-5.208,13.649,0,18.857c5.202,5.205,13.649,5.209,18.854,0.004
	L50,68.859c4.388-4.388,5.03-11.055,2.025-16.168l0.668-0.668c5.11,3.008,11.777,2.363,16.162-2.021l7.239-7.236
	C81.303,37.554,81.3,29.11,76.095,23.905z M45.287,64.146l-7.239,7.239c-2.601,2.598-6.829,2.598-9.427-0.003
	c-2.602-2.602-2.604-6.826-0.004-9.428l7.243-7.239c1.257-1.26,2.93-1.953,4.714-1.953c0.586,0,1.152,0.101,1.705,0.247l-5.24,5.241
	c-1.296,1.296-1.296,3.418,0,4.714c1.295,1.295,3.418,1.295,4.713,0l5.234-5.234C47.572,59.95,47.022,62.408,45.287,64.146z
	 M71.381,38.049l-7.239,7.24c-1.735,1.738-4.192,2.285-6.413,1.699l5.238-5.238c1.295-1.295,1.295-3.418,0-4.713
	c-1.299-1.296-3.418-1.296-4.717,0l-5.234,5.237c-0.586-2.22-0.039-4.678,1.695-6.413l7.243-7.243
	c1.26-1.26,2.933-1.953,4.714-1.953c1.78,0,3.453,0.693,4.713,1.953C73.982,31.219,73.982,35.448,71.381,38.049z"/>
</svg>
