<?xml version="1.0" encoding="UTF-8"?><svg xmlns="http://www.w3.org/2000/svg" viewBox="0 0 339.33 258.6"><defs><style>.cls-1,.cls-2{fill:#f6f5f7;}.cls-3{fill:#ebf2ff;}.cls-4{fill:#f27851;}.cls-5{fill:#fcdcda;}.cls-6{fill:#efbebd;}.cls-7{fill:#ee9d7f;}.cls-8{fill:#e67052;}.cls-9{fill:#cbdbf4;}.cls-10{fill:#e03d51;}.cls-11{fill:#d50c68;}.cls-12{fill:#c3dff3;}.cls-13{fill:#c92f3b;}.cls-14{fill:#acbfe2;}.cls-15{fill:#e28c71;}.cls-16{fill:#112762;}.cls-17{fill:#1f1440;}.cls-18{fill:#062440;}.cls-19{fill:#373c66;}.cls-20{fill:#6e86cc;}.cls-21{fill:#353a66;}.cls-22{fill:#494c7f;}.cls-23{fill:#6f92cb;}.cls-24{isolation:isolate;}.cls-2{mix-blend-mode:overlay;opacity:.2;}</style></defs><g class="cls-24"><g id="Layer_1"><g><path class="cls-12" d="M24.09,245.33s-31.44-22.09-16.99-49.86c14.46-27.77,43.37-70.4,28.9-92.14C21.56,81.6,20.09,11.98,103.22,1.3c66.31-8.51,86.46,26.51,96.74,50.41,13.56,31.53,1.44,89.08,64.84,96.67,63.41,7.59,99.63,38.94,54.21,90.05-19.85,22.33-294.92,6.89-294.92,6.89Z"/><g><path class="cls-3" d="M137.62,227.95c-46.79,10.23-84.9-3.97-71.9-28.13,13-24.16,5.03-27.21-4.99-34.81-10.03-7.6-32.55-28.76-10.61-52,21.97-23.23,5.28-29.97-1.58-43.64C28.51,29.49,109.77,13.12,87.78,49.82c-16.51,27.55-15.64,48.64,4.88,62.66,20.53,14.02,24.62,21.41,23.72,38.74-.91,17.33-8,54.15,12.92,52.61,20.9-1.53,32.32,18.87,8.32,24.12Z"/><path class="cls-9" d="M52.62,63.93c-2.17-4.13-2.68-24.37,16.96-23.32,11.95,.64,5.75,16.96,3.04,29.52-2.7,12.56-.86,32.28,4.14,40.4,9.23,14.98,7.25,21.28-4.17,34.14,0,0-5.93,9.55,5.01,19.79,10.94,10.24,6.71,38.45,19.42,43.02,12.71,4.57,19.89,14.31,11.18,15.22-8.69,.91-44.74,4.42-35.25-19.32,13.83-34.55-13.13-44.79-19.85-52.46-6.16-7.03-11.43-22.73,6.44-42.43,13.82-15.24-.25-31.85-6.91-44.56Z"/></g><g><path class="cls-16" d="M101.24,243.73l-.72,3.17c-.68-.17-16.98-4.27-34.54-15.54-23.38-15.01-37.59-35.61-41.07-59.63l3.03-.52c8.08,55.77,72.64,72.36,73.29,72.52Z"/><path class="cls-16" d="M27.12,174.94s-16.98-9.01-9.94-29.76c0,0,15.07,12.24,9.94,29.76Z"/><path class="cls-16" d="M32.56,191.9s-23.15,7.74-32.56-18.4c0,0,12.35-4.53,32.56,18.4Z"/><path class="cls-16" d="M31.77,192s21.49-11.99,10.78-37.53c0,0-11.73,6.08-10.78,37.53Z"/><path class="cls-16" d="M44.61,211.35s-22.32,10.21-34.22-14.74c0,0,11.84-5.86,34.22,14.74Z"/><path class="cls-16" d="M43.82,211.53s20.23-14.25,7.07-38.48c0,0-11.1,7.33-7.07,38.48Z"/><path class="cls-16" d="M63.82,228.25s-20.37,14.07-36.15-8.32c0,0,10.73-7.92,36.15,8.32Z"/><path class="cls-16" d="M63.07,228.57s17.64-17.69,.75-39.15c0,0-9.76,9.22-.75,39.15Z"/><path class="cls-16" d="M83.57,238.85s-16.21,19.17-37.01,1.94c0,0,8.44-10.57,37.01-1.94Z"/><path class="cls-16" d="M82.94,239.36s12.72-21.89-8.92-37.92c0,0-7.16,11.56,8.92,37.92Z"/></g><g><path class="cls-23" d="M221.86,243.8c44.81,12.23,82.41,.37,71.02-23.68-11.39-24.04-3.53-26.59,6.56-33.46,10.09-6.86,32.94-26.23,12.84-49.83-20.11-23.6-3.62-29.29,3.7-42.19,21.37-37.63-56.5-57.52-37.03-20.88,14.62,27.5,12.74,47.87-7.84,60.43-20.56,12.56-24.89,19.52-24.87,36.34,.02,16.82,5.06,52.83-15.12,50.31-20.17-2.52-32.24,16.67-9.26,22.94Z"/><path class="cls-2" d="M312.3,89.18c2.31-3.89,3.81-23.47-15.26-23.43-11.6,.03-6.4,16.14-4.4,28.44,1.99,12.3-.77,31.3-6.01,38.92-9.68,14.05-8.08,20.25,2.35,33.26,0,0,5.26,9.55-5.85,18.92-11.1,9.38-8.4,36.9-20.93,40.7-12.54,3.79-19.98,12.88-11.59,14.18,8.38,1.31,43.12,6.5,35.09-16.96-11.67-34.15,14.94-42.73,21.83-49.82,6.31-6.5,12.19-21.45-4.13-41.4-12.63-15.45,1.83-30.83,8.9-42.81Z"/></g><g><path class="cls-3" d="M215.34,243.01l-.68-4.15c65.94-10.78,94.47-62.42,94.76-62.95l3.71,2c-.29,.52-29.73,53.99-97.78,65.1Z"/><path class="cls-3" d="M309.14,179.44s8.61-22.27,19.84-15.16c4.77,3.02,2.2,13.82-19.84,15.16Z"/><path class="cls-3" d="M304.15,186.72s21.95-12.69,24.24,.14c.96,5.47-8.66,12.63-24.24-.14Z"/><path class="cls-3" d="M304.19,189.09s13.44-20.5-.4-22.48c-5.89-.86-13.53,8.14,.4,22.48Z"/><path class="cls-3" d="M289.57,203.95s14.47-20,.8-22.6c-5.82-1.12-13.87,7.55-.8,22.6Z"/><path class="cls-3" d="M276.75,215.27s14.36-20.02,.69-22.6c-5.83-1.11-13.85,7.59-.69,22.6Z"/><path class="cls-3" d="M258.84,226.41s17.73-17.68,5.05-22.54c-5.41-2.07-14.82,5.32-5.05,22.54Z"/><path class="cls-3" d="M243.32,233.48s17.22-18.11,4.33-22.6c-5.46-1.9-14.69,5.71-4.33,22.6Z"/><path class="cls-3" d="M222.08,239.58s21.46-13.52,10.83-21.29c-4.54-3.32-15.4,1.85-10.83,21.29Z"/><path class="cls-3" d="M293.42,200.14s21.99-12.69,24.25,.15c.97,5.46-8.63,12.6-24.25-.15Z"/><path class="cls-3" d="M280.3,211.97s21.98-12.67,24.25,.16c.98,5.45-8.64,12.61-24.25-.16Z"/><path class="cls-3" d="M265.89,221.59s23.97-7.99,22.96,5.3c-.41,5.66-11.32,10.77-22.96-5.3Z"/><path class="cls-3" d="M248.87,230.62s24.49-5.7,21.97,7.58c-1.07,5.65-12.34,9.73-21.97-7.58Z"/><path class="cls-3" d="M230.82,236.94s24.71-2.45,20.2,10.58c-1.95,5.54-13.56,8.12-20.2-10.58Z"/></g><path class="cls-14" d="M317.9,249.12c0,5.24-67.48,9.48-150.73,9.48s-150.73-4.25-150.73-9.48,67.49-9.48,150.73-9.48,150.73,4.24,150.73,9.48Z"/><g><path class="cls-11" d="M281.19,142.35c0,58.34-47.29,105.62-105.63,105.62s-105.63-47.29-105.63-105.62S117.22,36.72,175.56,36.72s105.63,47.29,105.63,105.63Z"/><g><path class="cls-1" d="M184.98,181.61c3.07,4.99-.03,12.48-6.92,16.71-6.89,4.23-14.97,3.61-18.03-1.39l-35.27-57.44c-3.07-5,.02-12.48,6.92-16.71,6.89-4.23,14.97-3.61,18.03,1.38l35.27,57.44Z"/><path class="cls-1" d="M183.7,194.15c-4.23,6.89-13.25,9.05-20.13,4.82-6.9-4.23-9.05-13.25-4.82-20.14l48.6-79.21c4.23-6.89,13.25-9.05,20.14-4.82,6.89,4.23,9.05,13.24,4.82,20.14l-48.61,79.22Z"/></g></g><g><path class="cls-15" d="M98.04,127.71c1.46-.68,6.28-1.05,8.79,2.75,3.39,5.09,4.55,17.47,12.11,21.21,7.58,3.72,12.3,.55,15.73-1.18,3.43-1.71,4-4.02,6.13-4.8,2.1-.77,2.93,1.78-1.93,5.86-2.34,1.95-12.64,12.98-22.47,10.22-12.9-3.63-27.03-30.1-18.37-34.05Z"/><g><g><path class="cls-4" d="M109.25,207.67c-2.11,12.92-3.82,40.31,1.85,40.09,5.68-.22,8.72-2.31,5.39-3.11-3.35-.8-3.47-1.18-3.44-2.21,.26-6.46,5.25-18.76,7.14-28.18,2.19-10.92-9.07-17.9-10.94-6.61Z"/><path class="cls-20" d="M108.52,245.17s5.09,1.84,7.97-.51c0,0,5.62,.47,2.21,2.18-3.39,1.72-10.07,3.38-10.18-1.67Z"/></g><path class="cls-13" d="M88.45,154.56s29.24,20.53,33.45,31.03c3.78,9.44-4.99,47.48-4.99,47.48,0,0-6.16,2.46-11.82-1.01l.74-29.58-24.68-22.57,7.3-25.34Z"/></g><g><path class="cls-4" d="M69.58,209.27c-10.8,8.92-31.47,29.78-26.73,33.6,4.73,3.81,8.66,4.27,6.52,1.3-2.12-3.01-1.97-3.42-1.21-4.21,4.76-5.02,17.42-11.43,25.55-17.67,9.46-7.24,5.3-20.8-4.14-13.02Z"/><path class="cls-20" d="M42.59,238.97s2.81,5.06,6.78,5.2c0,0,4.19,4.32,.25,3.3-3.94-1.01-10.47-4.36-7.03-8.5Z"/></g><path class="cls-10" d="M84.11,154.41s15.17,34.56,11.17,45.97c-3.59,10.27-37.41,34.74-37.41,34.74,0,0-6.7-2.36-8.82-9.14l21.42-23.31s-8.56-26.94-4.36-36.93c.15-.34-.59,2.38-.59,2.38l18.59-13.71Z"/><path class="cls-5" d="M102.36,169.71c5.6-7.39,8.77-18.85,8.99-27.75,.31-12.34-10.59-15.52-17.52-16.17-6.93-.67-18.26-2.01-17.79,13.37,.31,10.73-3.59,16.33-9.03,25.41-.15,.24-.29,.44-.44,.66-.02,0-.03-.03-.03-.03,0,.02,.01,.03,.03,.03-7.67,9.42,29.43,12.88,35.79,4.49Z"/><path class="cls-6" d="M67.01,164.55c-.15,.24-.29,.44-.44,.66-.02,0-.03-.03-.03-.03,0,.02,.01,.03,.03,.03-5.94,7.29,14.9,10.99,27.59,8.44,1.97-2.95-7.57-3.73-11.1-6.59-8.14-6.6,20.88-7.16,15.88-9.59-5.4-2.6-13.43-1.56-9.89-9.46,3.52-7.91,.49-17.37-2.86-20.57-3.49-3.35-9.33,.58-9.97,7.86-.16,1.16-.25,2.42-.2,3.85,.31,10.73-3.59,16.33-9.03,25.41Z"/><path class="cls-8" d="M94.82,116.74s1.53,5.85-2.79,8.01c-4.43,2.2,9.15,13.02,9.37,9.81,.28-4.14-1.36-6.93,1.5-11.21l-8.07-6.61Z"/><path class="cls-7" d="M105.26,108.15c2.85,3.89,3.9,18.86-.3,21.35-1.84,1.06-8.04-1.69-10.98-8.73-1.22-2.89-2.4-8.11,1.11-12.48,1.59-1.99,6.86-4.66,10.17-.13Z"/><path class="cls-18" d="M92.92,108.07c-3.71,4.66-2.08,9.15-1.82,9.98,.96,3.02,3.42,5.83,4.17,4.96,.89-1.04-2.48-2.13-.93-5.12,1.55-2.99-.42-4.05,.61-6.73,1-2.67,2.97-1.75,9.22-1.56,2.56,.08,3.2-.79,3.11-1.85-3.17-4.54-10.45-4.58-14.34,.32Z"/><path class="cls-21" d="M107.77,111.39c1.52-3.61,6.95-2.75,5.22-5.3-1.16-1.71-1.17-.42-14.09-3.06-6.03-1.23-7.22,1.35-8.37,4.75-1.07,3.14-.73,10.86,3.4,15.4,4.12,4.53-.13-3.02,1.45-6.44,1.58-3.41,2.62-1.97,4.9-1.4,2.27,.56,5.05,1.88,7.5-3.94Z"/><g><polygon class="cls-22" points="65.19 174.79 76.14 190.48 164.24 128.97 175.56 109.4 153.28 113.28 65.19 174.79"/><rect class="cls-19" x="64.02" y="151.97" width="107.45" height="8.53" transform="translate(-68.23 95.52) rotate(-34.92)"/><polygon class="cls-17" points="175.56 109.4 172.5 114.7 169.54 110.45 175.56 109.4"/></g><path class="cls-15" d="M83.66,126.49c1.64,.13,4.5,2.61,4.87,7.21,.52,6.16-2.97,17.24,1.89,24.24,4.88,7.02,10.62,6.52,14.5,6.68,3.9,.17,5.53-1.59,7.78-1.26,2.25,.34,1.73,3.02-4.58,4.25-3.01,.59-17.55,5.29-24.9-1.98-9.63-9.53-9.16-39.9,.44-39.14Z"/></g></g></g></g></svg>